<svg width="147" height="105" viewBox="0 0 147 105" fill="none" xmlns="http://www.w3.org/2000/svg">
<path fill-rule="evenodd" clip-rule="evenodd" d="M65.9289 79.7358C65.6443 79.8356 65.3682 79.9608 65.0946 80.0983V101.788H134.472L131.76 86.4713C130.718 82.8311 128.995 80.6906 126.342 79.7395L116.62 76.2526L102.134 91.4079C101.771 91.78 101.281 91.9904 100.773 91.9856C100.22 91.9819 99.6327 91.6986 99.2958 91.2753L95.8295 87.2265L92.0751 91.2583C91.7187 91.6426 91.0985 91.9053 90.6339 91.8591C90.0927 91.8044 89.5794 91.5903 89.2316 91.1707L75.8751 76.1699L65.9289 79.7358ZM9.1486 75.8525V101.788H62.6621V75.8525C62.6621 73.9625 61.1248 72.424 59.2348 72.424H12.5771C10.6883 72.424 9.1486 73.9625 9.1486 75.8525ZM87.3209 75.5362L95.8952 83.7433L104.943 75.518V58.4995C102.048 59.6841 99.1462 60.0927 96.5277 60.0927C92.3512 60.0927 88.8947 59.0577 87.3209 58.4946V71.2698C87.3209 71.271 87.321 71.2722 87.3212 71.2734C87.3214 71.2758 87.3217 71.2783 87.3209 71.2807V75.5362ZM89.0577 27.2427C86.6398 31.4618 81.2131 33.1876 78.9509 33.7337V41.1076C78.9509 47.185 82.2055 52.8611 87.4522 55.9406C88.2525 56.2677 97.0908 59.7072 105.145 55.7448C110.108 53.3026 113.314 47.556 113.314 41.1076V38.798C109.327 38.5195 96.4328 37.0491 90.4733 29.4696C89.9175 28.763 89.4602 28.0138 89.0577 27.2427ZM78.3452 75.2845L90.702 89.1639L94.1621 85.4521L85.2643 76.9349C85.2636 76.9339 85.263 76.9329 85.2624 76.9319C85.261 76.9293 85.2596 76.9269 85.257 76.9252C84.8964 76.6367 84.8932 76.2138 84.8922 76.0798L84.8921 76.069C84.8918 76.0679 84.8913 76.0668 84.8908 76.0657C84.8897 76.0631 84.8885 76.0602 84.8885 76.0568V72.9384L78.3452 75.2845ZM97.5627 85.5104L100.795 89.288L114.113 75.3538L107.375 72.936V76.0568C107.375 76.0677 107.302 76.5335 106.94 76.8862C104.662 79.1058 97.5627 85.5104 97.5627 85.5104ZM96.1324 3.35138C82.3685 3.35138 71.1708 14.5491 71.1708 28.3118V75.2723L84.8885 70.3539V57.1689C79.6916 53.5191 76.5185 47.5134 76.5185 41.1076V32.751C76.5245 31.896 77.4829 31.5603 77.5304 31.5518C77.6264 31.536 86.9487 29.8625 87.7587 23.6391C87.3063 21.4341 87.3489 19.0333 87.9035 16.4488C88.2416 14.8641 90.6205 15.3944 90.2812 16.9596C89.3495 21.3015 90.0574 25.0049 92.3864 27.9664C98.6329 35.9119 114.405 36.4252 114.563 36.4288C114.641 36.4312 115.745 36.6453 115.746 37.645V41.1076C115.746 47.9719 112.499 54.1673 107.375 57.2869V70.3515L121.093 75.2711V28.3118C121.093 14.5491 109.895 3.35138 96.1324 3.35138ZM134.143 85.986L136.941 101.788H145.569C146.24 101.788 146.785 102.332 146.785 103.004C146.785 103.677 146.24 104.221 145.569 104.221H1.24319C0.571842 104.221 0.0269775 103.677 0.0269775 103.004C0.0269775 102.332 0.571842 101.788 1.24319 101.788H6.71617V75.8525C6.71617 72.621 9.34563 69.9915 12.5771 69.9915H34.6891H37.1216H59.2348C62.4675 69.9915 65.0945 72.621 65.0945 75.8525V77.4506C65.1006 77.4494 65.1055 77.4469 65.1116 77.4445L68.7383 76.1444V28.3118C68.7383 13.2076 81.027 0.918945 96.1324 0.918945C111.237 0.918945 123.525 13.2076 123.525 28.3118V76.1444L127.164 77.4494C131.004 78.8285 133.352 82.3896 134.143 85.986ZM119.765 95.8422C120.035 95.8422 120.257 95.622 120.257 95.3508V92.2787C120.257 92.0075 120.035 91.7873 119.765 91.7873H109.294C109.024 91.7873 108.805 92.0075 108.805 92.2787V95.3508C108.805 95.622 109.024 95.8422 109.294 95.8422H119.765ZM109.294 89.3549H119.765C121.378 89.3549 122.689 90.666 122.689 92.2787V95.3508C122.689 96.9635 121.378 98.2746 119.765 98.2746H109.294C107.682 98.2746 106.372 96.9635 106.372 95.3508V92.2787C106.372 90.666 107.682 89.3549 109.294 89.3549Z" fill="#36A670"/>
</svg>
