<svg width="126" height="104" viewBox="0 0 126 104" fill="none" xmlns="http://www.w3.org/2000/svg">
<path fill-rule="evenodd" clip-rule="evenodd" d="M93.2003 10.3121C93.0489 5.09879 88.762 0.918945 83.4958 0.918945H42.5041L42.2178 0.923072C36.9883 1.07403 32.7955 5.34762 32.7955 10.5975V15.022V15.9744V18.1252H10.6815C5.31961 18.1252 0.972935 22.4584 0.972935 27.8037V48.5985C0.972562 48.6148 0.972564 48.631 0.972935 48.6472V93.4026C0.972935 98.7479 5.31961 103.081 10.6815 103.081H115.318C120.68 103.081 125.027 98.7479 125.027 93.4026V48.648C125.027 48.6313 125.027 48.6145 125.027 48.5976V27.8037C125.027 22.4584 120.68 18.1252 115.318 18.1252H93.2044L93.2044 15.9744L93.2044 15.022L93.2044 10.5975L93.2003 10.3121ZM91.047 15.022V10.5975C91.047 6.52663 87.8056 3.2105 83.7554 3.07409L83.4958 3.06973H42.5041C38.4206 3.06973 35.0942 6.30105 34.9573 10.3387L34.953 10.5975L34.953 15.022L34.953 15.9744L34.953 18.1252H39.8073V15.4781C39.8073 11.6528 43.1031 8.57722 47.1772 8.45073L47.4383 8.44668H78.5617C82.6677 8.44668 86.0491 11.4426 86.1882 15.235L86.1927 15.4781V18.1252H91.047V15.9744V15.022ZM55.9882 65.1549L3.1304 50.0493V93.4026C3.1304 97.56 6.51115 100.93 10.6815 100.93H115.318C119.489 100.93 122.87 97.56 122.87 93.4026V50.0493L70.0117 65.1549V70.8194C70.0117 72.6011 68.5628 74.0455 66.7755 74.0455H59.2244C57.4371 74.0455 55.9882 72.6011 55.9882 70.8194V65.1549ZM55.9882 62.9175L3.1304 47.8119V27.8037C3.1304 23.6463 6.51115 20.276 10.6815 20.276H115.318C119.489 20.276 122.87 23.6463 122.87 27.8037V47.8119L70.0117 62.9175V57.9147C70.0117 56.1329 68.5628 54.6885 66.7755 54.6885H59.2244C57.4371 54.6885 55.9882 56.1329 55.9882 57.9147V62.9175ZM84.0352 18.1252V15.4781C84.0352 12.8781 81.7353 10.7172 78.8071 10.6023L78.5617 10.5975H47.4383C44.4765 10.5975 42.0965 12.6881 41.97 15.2625L41.9647 15.4781V18.1252H84.0352ZM59.2244 56.8393H66.7755C67.3713 56.8393 67.8542 57.3207 67.8542 57.9147V70.8194C67.8542 71.4133 67.3713 71.8948 66.7755 71.8948H59.2244C58.6286 71.8948 58.1457 71.4133 58.1457 70.8194V57.9147C58.1457 57.3207 58.6286 56.8393 59.2244 56.8393ZM61.3819 58.9901H64.6181C65.8096 58.9901 66.7755 59.953 66.7755 61.1409V68.6686C66.7755 69.8564 65.8096 70.8194 64.6181 70.8194H61.3819C60.1903 70.8194 59.2244 69.8564 59.2244 68.6686V61.1409C59.2244 59.953 60.1903 58.9901 61.3819 58.9901ZM64.6181 61.1408H61.3819V68.6686H64.6181V61.1408Z" fill="#36A670"/>
</svg>
